<?xml version="1.0" standalone="no"?>
<!DOCTYPE svg PUBLIC "-//W3C//DTD SVG 20010904//EN"
 "http://www.w3.org/TR/2001/REC-SVG-20010904/DTD/svg10.dtd">
<svg version="1.0" xmlns="http://www.w3.org/2000/svg"
 width="193.000000pt" height="230.000000pt" viewBox="0 0 193.000000 230.000000"
 preserveAspectRatio="xMidYMid meet">

<g transform="translate(0.000000,230.000000) scale(0.100000,-0.100000)"
fill="#000000" stroke="none">
<path d="M1241 2153 c-37 -26 -87 -84 -141 -166 -63 -95 -181 -339 -211 -437
-48 -152 -62 -108 -65 205 -1 132 -2 245 -3 250 -1 6 -24 21 -52 34 -84 40
-83 44 -70 -280 6 -162 19 -333 32 -419 11 -80 24 -173 28 -208 5 -35 13 -68
19 -74 6 -6 27 -12 47 -13 52 -3 91 32 100 88 6 43 13 82 40 226 8 45 24 104
34 130 10 25 29 80 42 121 74 237 216 452 315 480 35 10 44 17 44 34 0 12 -5
27 -12 34 -18 18 -119 15 -147 -5z"/>
<path d="M910 910 l-155 -5 95 -8 c52 -4 145 -9 205 -12 61 -3 163 -8 228 -11
l117 -7 0 27 0 26 -167 -2 c-93 -1 -238 -5 -323 -8z"/>
<path d="M147 613 c-35 -5 -30 -25 9 -37 50 -15 57 -21 137 -119 43 -54 84
-97 92 -97 14 0 106 104 149 167 13 20 36 37 59 45 65 22 48 33 -52 36 -106 3
-123 0 -115 -23 5 -12 17 -15 42 -13 41 4 50 -10 25 -40 -10 -11 -36 -44 -58
-71 -22 -28 -44 -50 -50 -50 -10 0 -125 141 -125 153 0 3 16 6 35 6 23 0 38 6
42 15 3 9 4 17 2 19 -7 6 -163 13 -192 9z"/>
<path d="M1370 613 c-28 -10 -60 -46 -60 -68 0 -49 64 -75 188 -75 53 0 107
-3 119 -6 28 -8 36 -30 17 -49 -24 -24 -176 -20 -233 5 -24 11 -54 20 -67 20
-21 0 -24 -5 -24 -34 0 -42 16 -55 35 -30 12 17 17 18 47 6 18 -8 74 -16 125
-19 82 -5 95 -3 127 17 49 30 57 64 22 98 -25 26 -32 27 -149 30 -122 3 -167
13 -167 39 0 18 60 43 101 43 42 0 148 -28 173 -46 38 -26 56 -18 56 26 0 41
-8 47 -40 30 -12 -7 -33 -5 -67 5 -46 14 -172 19 -203 8z"/>
<path d="M702 593 c2 -14 15 -19 51 -21 l47 -3 0 -69 c0 -94 -3 -100 -57 -100
-37 0 -44 -3 -41 -17 3 -16 16 -18 113 -18 91 0 110 3 110 15 0 10 -13 17 -40
20 -38 5 -40 7 -40 40 l0 35 72 3 72 3 56 -51 c31 -28 68 -55 82 -61 37 -14
79 -2 104 29 26 34 9 41 -37 16 -33 -18 -35 -18 -70 1 -56 30 -61 50 -16 72
30 15 38 24 40 51 2 22 -3 41 -14 53 -16 18 -33 19 -226 19 -194 0 -209 -1
-206 -17z m411 -37 c12 -30 -19 -37 -144 -34 -120 3 -124 4 -127 26 -3 22 -3
22 131 22 108 0 136 -3 140 -14z"/>
</g>
</svg>
