<svg width="360" height="360" viewBox="0 0 360 360" fill="none" xmlns="http://www.w3.org/2000/svg">
<circle cx="180" cy="180" r="177.5" fill="url(#paint0_radial)" stroke="#8C1895" stroke-width="5"/>
<mask id="mask0" mask-type="alpha" maskUnits="userSpaceOnUse" x="22" y="68" width="322" height="224">
<path d="M29.1783 160.659C25.2138 160.659 22 163.873 22 167.837V191.572C22 195.536 25.2138 198.75 29.1783 198.75C33.1428 198.75 36.3567 195.536 36.3567 191.572V167.837C36.3567 163.872 33.1428 160.659 29.1783 160.659Z" fill="black"/>
<path d="M57.1462 160.659C53.1817 160.659 49.9678 163.873 49.9678 167.837V191.572C49.9678 195.536 53.1817 198.75 57.1462 198.75C61.1107 198.75 64.3245 195.536 64.3245 191.572V167.837C64.3245 163.872 61.1117 160.659 57.1462 160.659Z" fill="black"/>
<path d="M85.1141 150.617C81.1496 150.617 77.9357 153.83 77.9357 157.795V201.614C77.9357 205.578 81.1496 208.792 85.1141 208.792C89.0786 208.792 92.2924 205.578 92.2924 201.614V157.795C92.2924 153.83 89.0786 150.617 85.1141 150.617Z" fill="black"/>
<path d="M113.081 138.75C109.116 138.75 105.903 141.964 105.903 145.928V213.482C105.903 217.446 109.116 220.66 113.081 220.66C117.045 220.66 120.259 217.446 120.259 213.482V145.928C120.259 141.963 117.046 138.75 113.081 138.75Z" fill="black"/>
<path d="M141.05 117.753C137.085 117.753 133.871 120.967 133.871 124.931V234.477C133.871 238.442 137.085 241.655 141.05 241.655C145.014 241.655 148.228 238.442 148.228 234.477V124.931C148.228 120.967 145.014 117.753 141.05 117.753Z" fill="black"/>
<path d="M169.017 68C165.052 68 161.838 71.2138 161.838 75.1783V284.229C161.838 288.194 165.052 291.407 169.017 291.407C172.981 291.407 176.195 288.194 176.195 284.229V75.1783C176.195 71.2138 172.981 68 169.017 68Z" fill="black"/>
<path d="M196.984 85.8011C193.02 85.8011 189.806 89.015 189.806 92.9795V266.429C189.806 270.393 193.02 273.607 196.984 273.607C200.949 273.607 204.163 270.393 204.163 266.429V92.9795C204.163 89.014 200.949 85.8011 196.984 85.8011Z" fill="black"/>
<path d="M224.951 121.404C220.987 121.404 217.773 124.618 217.773 128.582V230.825C217.773 234.79 220.987 238.004 224.951 238.004C228.916 238.004 232.13 234.79 232.13 230.825V128.582C232.13 124.618 228.916 121.404 224.951 121.404Z" fill="black"/>
<path d="M252.92 142.856C248.956 142.856 245.742 146.07 245.742 150.034V209.372C245.742 213.337 248.956 216.551 252.92 216.551C256.885 216.551 260.099 213.337 260.099 209.372V150.034C260.099 146.07 256.885 142.856 252.92 142.856Z" fill="black"/>
<path d="M280.888 151.987C276.923 151.987 273.71 155.2 273.71 159.165V200.245C273.71 204.209 276.923 207.423 280.888 207.423C284.852 207.423 288.066 204.209 288.066 200.245V159.165C288.066 155.2 284.852 151.987 280.888 151.987Z" fill="black"/>
<path d="M308.855 160.659C304.89 160.659 301.676 163.873 301.676 167.837V191.572C301.676 195.536 304.89 198.75 308.855 198.75C312.819 198.75 316.033 195.536 316.033 191.572V167.837C316.033 163.872 312.819 160.659 308.855 160.659Z" fill="black"/>
<path d="M336.822 160.659C332.857 160.659 329.643 163.873 329.643 167.837V191.572C329.643 195.536 332.857 198.75 336.822 198.75C340.786 198.75 344 195.536 344 191.572V167.837C344 163.872 340.786 160.659 336.822 160.659Z" fill="black"/>
</mask>
<g mask="url(#mask0)">
<rect x="-72.3439" y="-73.516" width="525.045" height="525.045" fill="url(#paint1_linear)" fill-opacity="0.75"/>
</g>
<path d="M159.4 248L127 149.18L121.6 131.36V120.56H155.8L181.18 215.24H184.78L209.8 120.56H243.64V131.36L238.24 149.18L206.02 248H159.4Z" fill="white"/>
<defs>
<radialGradient id="paint0_radial" cx="0" cy="0" r="1" gradientUnits="userSpaceOnUse" gradientTransform="translate(180 180) rotate(90) scale(175)">
<stop stop-color="#010101"/>
<stop offset="1" stop-color="#00113C"/>
</radialGradient>
<linearGradient id="paint1_linear" x1="190.178" y1="-73.516" x2="190.178" y2="451.529" gradientUnits="userSpaceOnUse">
<stop stop-color="#11F5EF"/>
<stop offset="1" stop-color="#FF0DB6"/>
</linearGradient>
</defs>
</svg>
